<svg width="475" height="206" viewBox="0 0 475 206" fill="none" xmlns="http://www.w3.org/2000/svg">
<g clip-path="url(#clip0_1589_131)">
<path d="M567.999 116.749L201.973 327.486L1.98047 216.469L368.007 5.73157L567.999 116.749Z" stroke="white" stroke-width="1.81" stroke-miterlimit="10"/>
<path d="M184.994 111.101L384.986 222.118" stroke="white" stroke-width="1.81" stroke-miterlimit="10"/>
<path d="M286.98 184.979C305.196 183.038 319.087 173.232 318.005 163.076C316.923 152.919 301.279 146.259 283.062 148.199C264.846 150.139 250.955 159.946 252.037 170.102C253.119 180.259 268.763 186.919 286.98 184.979Z" stroke="white" stroke-width="1.81" stroke-miterlimit="10"/>
<path d="M548.342 105.842L527.552 117.812C477.948 146.371 401.764 149.556 357.398 124.922C313.025 100.288 317.266 57.1738 366.87 28.6082L387.66 16.6381" stroke="white" stroke-width="1.81" stroke-miterlimit="10"/>
<path d="M491.412 74.234L406.975 122.849C392.52 131.17 370.323 132.099 357.397 124.922C344.471 117.745 345.703 105.183 360.157 96.8615L444.595 48.2469" stroke="white" stroke-width="1.81" stroke-miterlimit="10"/>
<path d="M360.156 96.8615L406.973 122.848" stroke="white" stroke-width="1.81" stroke-miterlimit="10"/>
<path d="M462.826 58.184V15.0967C462.826 11.5757 458.8 9.56944 455.986 11.6901L443.35 21.2165" stroke="#0E5A67" stroke-width="2.19" stroke-miterlimit="10"/>
<path d="M426.303 1.26184L457.44 20.5165V41.3128L426.303 22.8257V1.26184Z" fill="white"/>
<path d="M434.551 19.0758L446.548 26.4882V34.4997L434.551 27.3836V19.0758Z" stroke="#0E5A67" stroke-width="1.1" stroke-miterlimit="10"/>
<path d="M433.231 36.7482C437.061 36.7482 440.166 35.3436 440.166 33.6109C440.166 31.8782 437.061 30.4736 433.231 30.4736C429.401 30.4736 426.297 31.8782 426.297 33.6109C426.297 35.3436 429.401 36.7482 433.231 36.7482Z" stroke="#0E5A67" stroke-width="1.1" stroke-miterlimit="10"/>
<path d="M470.171 98.1876L463.452 56.8507L462.369 57.497L469.087 98.8339C469.303 100.147 468.946 101.601 468.145 102.718C467.344 103.836 466.3 104.321 465.371 104.011L462.099 102.914L466.139 96.39L462.894 76.4419L461.581 75.7216L454.822 86.3184L454.808 86.2376L450.769 92.566L449.867 92.7276C450.277 91.9264 450.466 91.159 450.358 90.5059C450.048 88.6208 447.456 88.5468 444.447 90.3376C441.438 92.1284 439.324 95.0032 439.627 96.8882C439.936 98.7733 442.528 98.8474 445.538 97.0565C446.756 96.3294 447.827 95.4273 448.648 94.4848L449.395 94.7204L446.628 99.0493L446.642 99.1301L441.579 107.068L444.938 127.756L446.251 128.477L461.231 104.301L464.9 105.533C466.199 105.97 467.707 105.27 468.832 103.701C469.956 102.133 470.468 100.026 470.171 98.1876ZM445.416 96.3429C442.528 98.0596 440.367 97.8375 440.158 96.5583C439.95 95.2792 441.666 92.7545 444.548 91.0378C447.436 89.321 449.597 89.5432 449.806 90.8223C450.015 92.1015 448.298 94.6329 445.41 96.3429H445.416Z" fill="#0E5A67" fill-opacity="0.2"/>
</g>
<defs>
<clipPath id="clip0_1589_131">
<rect width="475" height="206" fill="white" transform="matrix(-1 0 0 1 475 0)"/>
</clipPath>
</defs>
</svg>
