<svg width="163" height="30" viewBox="0 0 163 30" fill="none" xmlns="http://www.w3.org/2000/svg">
<path d="M41.916 15.4556H42.1182L48.9883 0.704636H55.0098L44.9473 21.5572C44.0043 23.4969 43.0611 25.0462 42.1182 26.2046C41.1752 27.3362 40.1243 28.1717 38.9658 28.7105C37.8074 29.2223 36.4332 29.4781 34.8438 29.4781C34.278 29.4781 33.7525 29.4378 33.2676 29.357C32.8097 29.3031 32.3655 29.2084 31.9346 29.0738V24.2242C32.7697 24.4935 33.6184 24.6285 34.4805 24.6285C35.1539 24.6284 35.7601 24.5348 36.2988 24.3462C36.8377 24.1307 37.3228 23.8066 37.7539 23.3755C38.2118 22.9176 38.6157 22.3385 38.9658 21.6382L39.2031 21.1539L27.5293 0.704636H33.874L41.916 15.4556Z" fill="black"/>
<path d="M149.182 15.4556H149.384L156.254 0.704636H162.275L152.213 21.5572C151.27 23.4969 150.327 25.0462 149.384 26.2046C148.441 27.3362 147.39 28.1717 146.231 28.7105C145.073 29.2223 143.699 29.4781 142.109 29.4781C141.544 29.4781 141.018 29.4378 140.533 29.357C140.075 29.3031 139.631 29.2084 139.2 29.0738V24.2242C140.035 24.4935 140.884 24.6285 141.746 24.6285C142.42 24.6284 143.026 24.5348 143.564 24.3462C144.103 24.1307 144.588 23.8066 145.02 23.3755C145.477 22.9176 145.881 22.3385 146.231 21.6382L146.469 21.1529L134.795 0.704636H141.14L149.182 15.4556Z" fill="black"/>
<path d="M6.08789 14.1353L17.8887 0.704636H24.7588L12.6377 14.3804L25.6885 28.9937H18.333L6.08789 15.231V28.9937H0.228516V0.704636H6.08789V14.1353Z" fill="black"/>
<path fill-rule="evenodd" clip-rule="evenodd" d="M79.4648 5.55424H63.7031V11.2115H70.8164C73.2949 11.2115 75.3697 11.5487 77.04 12.2222C78.7101 12.8957 79.9627 13.8925 80.7979 15.2124C81.6599 16.5325 82.0908 18.1625 82.0908 20.1021C82.0908 23.0118 81.1345 25.2213 79.2217 26.73C77.3089 28.2387 74.5072 28.9937 70.8164 28.9937H57.8438V0.704636H79.4648V5.55424ZM63.7031 24.1441H70.4521C72.2303 24.1441 73.5641 23.8069 74.4531 23.1333C75.3691 22.4598 75.8271 21.4492 75.8271 20.1021C75.827 18.7553 75.3821 17.7453 74.4932 17.0718C73.6041 16.3984 72.2571 16.0611 70.4521 16.0611H63.7031V24.1441Z" fill="black"/>
<path d="M108.546 5.75639H92.9863V28.9937H87.127V0.704636H108.546V5.75639Z" fill="black"/>
<path fill-rule="evenodd" clip-rule="evenodd" d="M136.423 28.9937H130.199L128.135 23.7398H114.248L112.175 28.9937H106.113L117.591 0.704636H124.945L136.423 28.9937ZM116.162 18.8902H126.23L121.309 6.36284H121.106L116.162 18.8902Z" fill="black"/>
</svg>
